<svg width="1080" height="1080" viewBox="0 0 1080 1080" fill="none" xmlns="http://www.w3.org/2000/svg">
<path d="M569.59 974.85V813.54H678V543H407.8V813H515V974.69H137.91V813.24H244.64V542.63H138V380.35H246.36C246.36 364.17 245.36 348.87 246.51 333.73C250.264 281.71 270.786 232.31 304.997 192.943C339.208 153.575 385.262 126.363 436.25 115.39C459.25 110.39 483.52 110.5 507.25 109.39C527.53 108.47 547.88 109.2 568.66 109.2V271.5C543.16 271.5 518.15 271.29 493.13 271.62C484.988 271.588 476.869 272.484 468.93 274.29C433.29 283.09 409.53 312.69 407.38 350.56C406.85 359.89 407.3 369.27 407.3 379.82H839.3V812.82H946.63V974.85H569.59Z" fill="#90EFDF"/>
<path d="M758.15 271.44C736.641 271.388 716.033 262.794 700.861 247.548C685.688 232.303 677.193 211.654 677.245 190.145C677.297 168.636 685.891 148.028 701.137 132.856C716.382 117.683 737.031 109.188 758.54 109.24C803.21 109.3 839.91 146.42 839.45 191.08C839.236 212.489 830.573 232.947 815.345 247.999C800.118 263.05 779.561 271.475 758.15 271.44V271.44Z" fill="#90EFDF"/>
</svg>
